<?xml version="1.0" standalone="no"?>
<!DOCTYPE svg PUBLIC "-//W3C//DTD SVG 20010904//EN"
 "http://www.w3.org/TR/2001/REC-SVG-20010904/DTD/svg10.dtd">
<svg version="1.0" xmlns="http://www.w3.org/2000/svg"
 width="512.000000pt" height="512.000000pt" viewBox="0 0 512.000000 512.000000"
 preserveAspectRatio="xMidYMid meet">
<metadata>
Created by potrace 1.14, written by Peter Selinger 2001-2017
</metadata>
<g transform="translate(0.000000,512.000000) scale(0.100000,-0.100000)"
fill="#000000" stroke="none">
<path d="M2504 4471 c-18 -11 -45 -36 -60 -57 -39 -50 -47 -160 -16 -220 36
-70 88 -104 158 -104 42 0 114 35 114 55 0 17 -94 275 -116 317 -17 33 -37 35
-80 9z"/>
<path d="M2683 4459 c82 -68 104 -182 52 -277 -26 -48 -26 -50 -11 -107 l15
-57 -202 5 c-144 3 -237 11 -326 27 -163 29 -170 31 -163 66 4 24 2 26 -14 19
-73 -30 -72 -30 -146 -6 -112 36 -188 75 -252 131 -62 54 -98 62 -120 27 -22
-35 12 -68 164 -154 80 -45 152 -86 160 -91 11 -7 -2 -25 -61 -83 -41 -41 -94
-103 -118 -138 -59 -87 -127 -233 -152 -327 -27 -100 -37 -313 -19 -423 50
-312 249 -593 518 -730 l42 -21 0 33 c0 28 -9 41 -68 90 -167 142 -284 326
-345 545 -18 66 -21 104 -21 262 0 174 2 191 27 274 33 106 83 216 128 283 59
88 141 183 158 183 8 0 102 -43 206 -95 l191 -95 27 -122 c33 -147 34 -195 7
-274 -43 -124 -36 -280 20 -476 16 -55 31 -102 33 -104 2 -2 16 33 31 78 15
45 69 165 120 267 180 359 196 432 183 811 l-2 44 110 13 c165 20 484 98 499
122 12 19 -170 154 -284 211 -123 62 -315 119 -400 120 -23 0 -23 -1 13 -31z"/>
<path d="M3534 4260 c-32 -28 -81 -62 -111 -76 l-54 -27 28 -29 c28 -29 28
-30 8 -44 -11 -8 -142 -75 -290 -149 l-270 -134 -2 -58 c0 -32 -8 -86 -17
-119 -18 -71 -21 -153 -6 -204 20 -68 29 -195 19 -270 -12 -98 -36 -191 -109
-412 -84 -258 -90 -286 -99 -441 -6 -90 -14 -143 -22 -154 -13 -15 -8 -16 53
-9 374 38 734 288 910 632 93 182 130 334 131 539 1 265 -70 494 -220 709 -30
43 -51 82 -46 86 4 5 42 27 83 50 114 64 150 103 130 140 -18 33 -54 24 -116
-30z"/>
<path d="M2412 2658 c4 -108 9 -136 41 -230 20 -59 48 -129 62 -155 l26 -48
-5 95 c-3 52 -13 124 -21 160 -26 111 -88 300 -98 300 -6 0 -8 -48 -5 -122z"/>
<path d="M2551 2170 c-1 -18 16 -46 23 -40 2 3 -2 16 -9 30 -8 15 -14 19 -14
10z"/>
<path d="M3341 2079 c-13 -17 -20 -33 -17 -36 7 -7 44 25 57 49 17 31 -15 21
-40 -13z"/>
<path d="M603 1991 c-44 -27 -53 -69 -53 -237 0 -167 5 -196 36 -228 42 -41
120 -39 160 5 25 28 34 149 10 149 -12 0 -16 -10 -16 -45 0 -79 -35 -117 -98
-107 -49 8 -57 41 -57 230 l0 174 28 24 c58 50 117 20 125 -64 3 -37 9 -52 20
-52 26 0 11 106 -20 136 -34 35 -93 41 -135 15z"/>
<path d="M1954 1991 c-46 -28 -54 -64 -54 -245 0 -133 3 -167 18 -196 31 -62
129 -73 178 -19 17 19 19 39 19 220 l0 199 -26 26 c-35 35 -94 42 -135 15z
m91 -17 c36 -14 45 -57 45 -223 0 -98 -4 -170 -11 -185 -14 -30 -61 -49 -92
-37 -49 19 -52 32 -52 222 0 174 0 178 24 203 24 25 53 32 86 20z"/>
<path d="M2355 2001 c-11 -5 -29 -19 -40 -31 -19 -21 -20 -36 -20 -220 0 -180
2 -200 19 -219 26 -28 78 -42 118 -30 21 5 36 5 42 -1 13 -13 56 -13 56 -1 0
5 -9 13 -21 16 -16 5 -19 12 -13 28 13 38 17 349 4 390 -18 60 -86 92 -145 68z
m79 -32 c14 -7 30 -25 36 -42 15 -44 13 -326 -3 -357 -28 -56 -111 -58 -136
-4 -18 39 -15 338 4 374 21 41 52 50 99 29z"/>
<path d="M3829 1995 c-45 -25 -54 -64 -54 -245 0 -177 8 -219 48 -238 43 -21
66 -23 102 -8 49 21 65 63 65 171 l0 85 -50 0 c-38 0 -50 -4 -50 -15 0 -10 11
-15 35 -15 l35 0 0 -70 c0 -38 -5 -81 -12 -95 -19 -43 -89 -51 -120 -13 -16
18 -18 43 -18 200 0 177 0 179 25 203 52 53 115 20 123 -63 3 -35 9 -52 18
-52 22 0 18 79 -6 118 -31 50 -89 65 -141 37z"/>
<path d="M4204 2001 c-12 -5 -31 -22 -43 -37 -21 -27 -22 -35 -19 -221 l3
-193 27 -26 c21 -22 36 -27 74 -27 40 0 51 4 76 31 24 28 28 41 28 92 0 47 -3
60 -15 60 -11 0 -15 -13 -15 -54 0 -65 -21 -97 -66 -98 -45 -1 -72 18 -79 55
-4 18 -5 106 -3 196 3 157 4 163 27 182 55 45 121 3 121 -76 0 -33 4 -45 15
-45 11 0 15 12 15 50 0 40 -5 56 -27 80 -30 33 -82 46 -119 31z"/>
<path d="M4474 2000 c-12 -4 -31 -21 -43 -36 -20 -25 -21 -38 -21 -214 0 -174
2 -189 20 -213 51 -64 163 -49 189 25 17 48 14 341 -3 383 -22 53 -86 78 -142
55z m93 -44 l28 -24 0 -181 c0 -173 -1 -181 -22 -203 -30 -30 -90 -29 -115 2
-16 19 -18 44 -18 202 0 177 0 179 25 203 31 32 66 32 102 1z"/>
<path d="M830 1750 l0 -250 95 0 c78 0 95 3 95 15 0 12 -16 15 -80 15 l-80 0
0 105 0 105 65 0 c51 0 65 3 65 15 0 12 -14 15 -65 15 l-65 0 0 100 0 100 80
0 c64 0 80 3 80 15 0 12 -17 15 -95 15 l-95 0 0 -250z"/>
<path d="M1080 1751 c0 -215 2 -251 15 -251 12 0 15 33 17 218 l3 217 75 -215
c56 -160 79 -216 93 -218 16 -3 17 14 17 247 0 215 -2 251 -15 251 -12 0 -15
-31 -17 -199 l-3 -200 -70 197 c-61 171 -73 197 -92 200 l-23 3 0 -250z"/>
<path d="M1342 1988 c3 -7 27 -15 54 -18 l49 -5 3 -232 c2 -198 5 -233 17
-233 13 0 15 34 15 234 l0 235 47 3 c26 2 48 9 51 16 3 9 -25 12 -118 12 -93
0 -121 -3 -118 -12z"/>
<path d="M1630 1750 c0 -216 2 -250 15 -250 12 0 15 19 15 110 l0 110 48 0
c74 0 92 -18 92 -94 0 -82 9 -126 26 -126 11 0 14 18 14 75 0 80 -17 137 -45
152 -16 9 -15 12 8 35 46 46 47 169 1 215 -20 20 -33 23 -99 23 l-75 0 0 -250z
m152 203 c14 -13 18 -31 18 -88 0 -87 -15 -106 -90 -113 l-50 -5 0 112 0 111
52 0 c34 0 58 -6 70 -17z"/>
<path d="M2582 1783 c3 -192 5 -221 22 -245 41 -61 146 -54 178 12 15 30 18
65 18 243 0 177 -2 207 -15 207 -13 0 -15 -29 -15 -199 0 -115 -4 -211 -11
-229 -18 -51 -91 -63 -127 -20 -8 10 -12 82 -14 229 -3 198 -4 214 -21 217
-17 4 -18 -8 -15 -215z"/>
<path d="M2860 1750 c0 -216 2 -250 15 -250 13 0 15 34 15 250 0 216 -2 250
-15 250 -13 0 -15 -34 -15 -250z"/>
<path d="M2950 1750 c0 -216 2 -250 15 -250 12 0 15 19 15 110 l0 110 53 0
c77 0 90 -18 97 -128 4 -66 9 -87 20 -90 13 -2 14 12 10 94 -5 90 -8 98 -33
120 l-28 24 28 24 c26 23 28 29 28 106 0 77 -2 83 -28 106 -24 21 -38 24 -103
24 l-74 0 0 -250z m147 212 c30 -19 42 -103 22 -160 -12 -34 -49 -52 -105 -52
l-34 0 0 110 0 110 53 0 c28 0 57 -4 64 -8z"/>
<path d="M3230 1785 c0 -135 4 -223 11 -238 21 -47 96 -65 149 -37 43 23 50
64 50 285 0 176 -2 205 -15 205 -13 0 -15 -29 -15 -205 0 -130 -4 -213 -11
-229 -23 -51 -103 -55 -128 -7 -7 12 -11 101 -11 230 0 181 -2 211 -15 211
-13 0 -15 -31 -15 -215z"/>
<path d="M3500 1750 c0 -216 2 -250 15 -250 12 0 15 19 15 110 l0 110 53 0
c77 0 91 -18 97 -128 4 -67 9 -87 20 -90 13 -2 15 11 12 80 -3 78 -16 138 -31
138 -3 0 -12 4 -19 9 -10 6 -6 15 17 39 29 28 31 35 31 102 0 66 -2 74 -29
101 -27 27 -35 29 -105 29 l-76 0 0 -250z m146 212 c32 -21 45 -111 24 -166
-10 -27 -68 -51 -110 -44 -25 3 -25 5 -28 111 l-3 107 53 0 c29 0 58 -4 64 -8z"/>
<path d="M4050 1750 c0 -216 2 -250 15 -250 13 0 15 34 15 250 0 216 -2 250
-15 250 -13 0 -15 -34 -15 -250z"/>
<path d="M4109 1325 c-52 -28 -59 -62 -59 -300 0 -187 2 -221 17 -246 46 -78
207 -79 247 0 13 25 16 70 16 251 0 243 -5 266 -60 295 -36 19 -126 19 -161 0z
m112 -75 c18 -10 19 -23 19 -213 0 -145 -3 -206 -12 -215 -19 -19 -66 -15 -78
7 -6 12 -10 97 -10 207 0 160 2 190 17 206 18 20 36 23 64 8z"/>
<path d="M930 1080 c0 -236 -1 -250 -19 -260 -11 -5 -29 -10 -40 -10 -18 0
-21 -6 -21 -40 l0 -40 53 0 c55 0 85 17 106 57 7 14 11 110 11 282 l0 261 -45
0 -45 0 0 -250z"/>
<path d="M1430 1030 l0 -300 130 0 130 0 0 40 0 40 -80 0 -80 0 0 260 0 260
-50 0 -50 0 0 -300z"/>
<path d="M2300 1030 l0 -300 45 0 45 0 0 109 0 108 52 7 c110 15 138 54 138
190 0 159 -26 186 -177 186 l-103 0 0 -300z m180 194 c6 -14 10 -51 10 -82 0
-74 -19 -104 -63 -100 l-32 3 -3 103 -3 102 41 0 c34 0 42 -4 50 -26z"/>
<path d="M2720 1030 l0 -300 50 0 50 0 0 120 0 120 33 0 c50 0 57 -13 57 -116
0 -121 2 -124 59 -124 l46 0 -5 112 c-6 111 -14 142 -45 168 -14 12 -14 15 5
35 56 60 52 218 -7 265 -22 17 -40 20 -134 20 l-109 0 0 -300z m178 208 c7 -7
12 -40 12 -79 0 -77 -14 -99 -61 -99 l-29 0 0 95 0 95 33 0 c18 0 38 -5 45
-12z"/>
<path d="M3187 1043 c-26 -159 -47 -294 -47 -300 0 -9 16 -13 45 -13 43 0 45
1 45 29 0 16 4 41 10 55 9 24 15 26 64 26 52 0 54 -1 60 -31 3 -17 6 -42 6
-55 0 -22 4 -24 51 -24 51 0 51 0 46 28 -3 15 -24 150 -48 300 l-43 272 -71 0
-70 0 -48 -287z m152 -90 c1 -32 0 -33 -42 -33 l-44 0 19 133 c10 72 22 139
25 147 6 15 41 -188 42 -247z"/>
<path d="M3610 1030 l0 -300 100 0 c182 0 190 13 190 300 0 289 -6 300 -182
300 l-108 0 0 -300z m190 201 c6 -12 10 -94 10 -198 0 -208 -6 -226 -68 -221
l-37 3 -3 218 -2 217 44 0 c35 0 48 -5 56 -19z"/>
<path d="M1190 770 l0 -40 40 0 40 0 0 40 0 40 -40 0 -40 0 0 -40z"/>
<path d="M1820 770 l0 -40 45 0 45 0 0 40 0 40 -45 0 -45 0 0 -40z"/>
</g>
</svg>
